<svg xmlns="http://www.w3.org/2000/svg" xmlns:xlink="http://www.w3.org/1999/xlink" width="940" height="455.91"><rect width="940" height="455.91" rx="0" ry="0" class="a"/><svg height="455.91" viewBox="0 0 94 45.591" width="940" xmlns="http://www.w3.org/2000/svg" xmlns:xlink="http://www.w3.org/1999/xlink"><style>@keyframes o{0%{transform:translateX(-188px)}.19%{transform:translateX(-282px)}.24%{transform:translateX(-470px)}.32%{transform:translateX(-564px)}.33%{transform:translateX(-658px)}6.79%{transform:translateX(-752px)}6.89%{transform:translateX(-940px)}11.7%{transform:translateX(-1034px)}19.48%{transform:translateX(-1222px)}19.71%{transform:translateX(-1316px)}28.61%{transform:translateX(-1504px)}28.82%{transform:translateX(-1598px)}31.5%{transform:translateX(-1692px)}31.59%{transform:translateX(-1880px)}34.19%{transform:translateX(-1974px)}34.2%{transform:translateX(-2068px)}37.69%{transform:translateX(-2256px)}40.45%{transform:translateX(-2350px)}40.53%{transform:translateX(-2538px)}43.14%{transform:translateX(-2632px)}43.15%{transform:translateX(-2726px)}45.6%{transform:translateX(-2820px)}48.02%{transform:translateX(-3008px)}54.83%{transform:translateX(-3102px)}55.07%{transform:translateX(-3196px)}55.66%{transform:translateX(-3290px)}55.97%{transform:translateX(-3384px)}56.68%{transform:translateX(-3478px)}57.88%{transform:translateX(-3572px)}60.05%{transform:translateX(-3666px)}60.82%{transform:translateX(-3760px)}62.67%{transform:translateX(-3854px)}63.62%{transform:translateX(-4042px)}63.63%{transform:translateX(-4136px)}69.56%{transform:translateX(-4418px)}78.93%{transform:translateX(-4794px)}81.38%{transform:translateX(-4888px)}81.63%{transform:translateX(-4982px)}82.05%{transform:translateX(-5076px)}82.41%{transform:translateX(-5170px)}82.75%{transform:translateX(-5264px)}83.02%{transform:translateX(-5358px)}83.38%{transform:translateX(-5452px)}83.77%{transform:translateX(-5546px)}83.99%{transform:translateX(-5640px)}84.48%{transform:translateX(-5734px)}84.61%{transform:translateX(-5828px)}85.18%{transform:translateX(-5922px)}85.38%{transform:translateX(-6016px)}86.43%{transform:translateX(-6204px)}89.08%{transform:translateX(-6486px)}97.24%{transform:translateX(-6580px)}97.25%{transform:translateX(-6768px)}97.59%{transform:translateX(-6956px)}to{transform:translateX(-7050px)}}.a{fill:#282d35}.c{fill:#a8cc8c}.d{fill:#b9c0cb}.e{fill:#66c2cd}.f{fill:#d290e4}.g{fill:#dbab79}.h{fill:#e88388}.i{fill:#b9c0cb;text-decoration:underline}.j{fill:#fff}.k{fill:#b9bfca}.l{fill:#73bef3}</style><g font-size="1.67" font-family="Monaco,Consolas,Menlo,'Bitstream Vera Sans Mono','Powerline Symbols',monospace"><defs><symbol id="1"><text y="1.67" class="c">auxten</text><text x="6.012" y="1.67" class="d">@</text><text x="7.014" y="1.67" class="e">AuxMBP</text><text x="13.026" y="1.67" class="d">:</text><text x="14.028" y="1.67" class="f">~/Codes/go/src/github.com/CovenantSQL/CovenantSQL/rpc/_example</text><text x="76.152" y="1.67" class="g">(develop</text><text x="84.168" y="1.67" class="h">⚡</text><text x="85.17" y="1.67" class="g">)</text><text x="87.174" y="1.67" class="h">»</text><text x="89.178" y="1.67" class="c">scree</text></symbol><symbol id="2"><text y="1.67" class="c">n</text><text x="2.004" y="1.67" class="d">-URD</text><text x="7.014" y="1.67" class="d">auxten</text></symbol><symbol id="3"><text y="1.67" class="c">auxten</text><text x="6.012" y="1.67" class="d">@</text><text x="7.014" y="1.67" class="e">AuxMBP</text><text x="13.026" y="1.67" class="d">:</text><text x="14.028" y="1.67" class="f">~/Codes/go/src/github.com/CovenantSQL/CovenantSQL/rpc/_example/tracker</text><text x="84.168" y="1.67" class="g">(develop</text><text x="92.184" y="1.67" class="h">⚡</text><text x="93.186" y="1.67" class="g">)</text></symbol><symbol id="4"><text x="1.002" y="1.67" class="h">»</text><text x="3.006" y="1.67" class="c">go</text><text x="6.012" y="1.67" class="d">run</text><text x="10.02" y="1.67" class="i">main.go</text><text x="18.036" y="1.67" class="i">../conf/tracker.yaml</text><text x="90.18" y="1.67" class="h">1</text><text x="92.184" y="1.67" class="h">↵</text></symbol><symbol id="5">0<text y="1.67" class="c">[ ..ample/tracker</text>0<text x="18.036" y="1.67" class="c">][</text>0<text x="31.062" y="1.67" class="h">(</text>0<text x="32.064" y="1.67" class="j">0*Tracker</text>0<text x="41.082" y="1.67" class="h">)</text>0<text x="42.084" y="1.67" class="k">1- AliceNode 2 BobNode</text>0<text x="78.156" y="1.67" class="c">][</text>0<text x="80.16" y="1.67" class="l">09-17</text>0<text x="87.174" y="1.67" class="j">19:23</text>0<text x="93.186" y="1.67" class="c">]</text></symbol><symbol id="6">0<text y="1.67" class="c">[ go</text>0<text x="5.01" y="1.67" class="c">][</text>0<text x="19.038" y="1.67" class="h">(</text>0<text x="20.04" y="1.67" class="j">0*AuxMBP:tracker:go</text>0<text x="39.078" y="1.67" class="h">)</text>0<text x="40.08" y="1.67" class="k">1- AliceNode 2 BobNode</text>0<text x="78.156" y="1.67" class="c">][</text>0<text x="80.16" y="1.67" class="l">09-17</text>0<text x="87.174" y="1.67" class="j">19:23</text>0<text x="93.186" y="1.67" class="c">]</text></symbol><symbol id="7"><text y="1.67" class="e">INFO</text><text x="4.008" y="1.67" class="d">[0000]</text></symbol><symbol id="8"><text y="1.67" class="d">###</text><text x="4.008" y="1.67" class="d">Public</text><text x="11.022" y="1.67" class="d">Key</text><text x="15.03" y="1.67" class="d">###</text></symbol><symbol id="9"><text x="2.004" y="1.67" class="e">caller</text><text x="8.016" y="1.67" class="d">=&quot;privatekeystore.go:116</text><text x="33.066" y="1.67" class="d">crypto/kms.InitLocalKeyPair&quot;</text></symbol><symbol id="10"><text y="1.67" class="c">auxten</text><text x="6.012" y="1.67" class="d">@</text><text x="7.014" y="1.67" class="e">AuxMBP</text><text x="13.026" y="1.67" class="d">:</text><text x="14.028" y="1.67" class="f">~/Codes/go/src/github.com/CovenantSQL/CovenantSQL/rpc/_example/node</text><text x="81.162" y="1.67" class="g">(develop</text></symbol><symbol id="11"><text y="1.67" class="c">auxten</text><text x="6.012" y="1.67" class="d">@</text><text x="7.014" y="1.67" class="e">AuxMBP</text><text x="13.026" y="1.67" class="d">:</text><text x="14.028" y="1.67" class="f">~/Codes/go/src/github.com/CovenantSQL/CovenantSQL/rpc/_example/node</text><text x="81.162" y="1.67" class="g">(develop</text><text x="89.178" y="1.67" class="h">⚡</text><text x="90.18" y="1.67" class="g">)</text><text x="92.184" y="1.67" class="h">»</text></symbol><symbol id="12"><text y="1.67" class="c">go</text><text x="3.006" y="1.67" class="d">run</text><text x="7.014" y="1.67" class="i">main.go</text><text x="15.03" y="1.67" class="i">../conf/node1.yaml</text></symbol><symbol id="13">0<text y="1.67" class="c">[ .._example/node</text>0<text x="18.036" y="1.67" class="c">][</text>0<text x="26.052" y="1.67" class="k">0- AuxMBP:tracker:go</text>0<text x="48.096" y="1.67" class="h">(</text>0<text x="49.098" y="1.67" class="j">1*AliceNode</text>0<text x="60.12" y="1.67" class="h">)</text>0<text x="61.122" y="1.67" class="k">2 BobNode</text>0<text x="78.156" y="1.67" class="c">][</text>0<text x="80.16" y="1.67" class="l">09-17</text>0<text x="87.174" y="1.67" class="j">19:23</text>0<text x="93.186" y="1.67" class="c">]</text></symbol><symbol id="14"><text y="1.67" class="c">auxten</text><text x="6.012" y="1.67" class="d">@</text><text x="7.014" y="1.67" class="e">AuxMBP</text><text x="13.026" y="1.67" class="d">:</text><text x="14.028" y="1.67" class="f">~/Codes/go/src/github.com/CovenantSQL/CovenantSQL/rpc/_example/node</text><text x="81.162" y="1.67" class="g">(dev</text></symbol><symbol id="15"><text y="1.67" class="c">go</text><text x="3.006" y="1.67" class="d">run</text><text x="7.014" y="1.67" class="i">main.go</text><text x="15.03" y="1.67" class="i">../conf/node2.yaml</text><text x="90.18" y="1.67" class="h">1</text><text x="92.184" y="1.67" class="h">↵</text></symbol><symbol id="16">0<text y="1.67" class="c">[ .._example/node</text>0<text x="18.036" y="1.67" class="c">][</text>0<text x="26.052" y="1.67" class="k">0 AuxMBP:tracker:go 1- AliceNode</text>0<text x="61.122" y="1.67" class="h">(</text>0<text x="62.124" y="1.67" class="j">2*BobNode</text>0<text x="71.142" y="1.67" class="h">)</text>0<text x="76.152" y="1.67" class="k"></text>0<text x="78.156" y="1.67" class="c">][</text>0<text x="80.16" y="1.67" class="l">09-17</text>0<text x="87.174" y="1.67" class="j">19:24</text>0<text x="93.186" y="1.67" class="c">]</text></symbol><symbol id="17">0<text y="1.67" class="c">[ [~/Codes/go/src/github.com/CovenantSQL/CovenantSQL/rpc/_example/node] :go run main.go ../con</text></symbol><symbol id="18">0<text y="1.67" class="c">[ go</text>0<text x="5.01" y="1.67" class="c">][</text>0<text x="16.032" y="1.67" class="k">0 AuxMBP:tracker:go 1- AliceNode</text>0<text x="51.102" y="1.67" class="h">(</text>0<text x="52.104" y="1.67" class="j">2*AuxMBP:node:go</text>0<text x="68.136" y="1.67" class="h">)</text>0<text x="76.152" y="1.67" class="k"></text>0<text x="78.156" y="1.67" class="c">][</text>0<text x="80.16" y="1.67" class="l">09-17</text>0<text x="87.174" y="1.67" class="j">19:24</text>0<text x="93.186" y="1.67" class="c">]</text></symbol><symbol id="19"><text y="1.67" class="d">0367aa51809a7c1dc0f82c02452fec9557b3e1d10ce7c919d8e73d90048df86d20</text></symbol><symbol id="20"><text y="1.67" class="d">Input</text><text x="6.012" y="1.67" class="d">target</text><text x="13.026" y="1.67" class="d">node</text><text x="18.036" y="1.67" class="d">ID:</text></symbol><symbol id="21">0<text y="1.67" class="c">[ .._example/node</text>0<text x="18.036" y="1.67" class="c">][</text>0<text x="22.044" y="1.67" class="k">0 AuxMBP:tracker:go</text>0<text x="43.086" y="1.67" class="h">(</text>0<text x="44.088" y="1.67" class="j">1*AliceNode</text>0<text x="55.11" y="1.67" class="h">)</text>0<text x="56.112" y="1.67" class="k">2- AuxMBP:node:go</text>0<text x="78.156" y="1.67" class="c">][</text>0<text x="80.16" y="1.67" class="l">09-17</text>0<text x="87.174" y="1.67" class="j">19:24</text>0<text x="93.186" y="1.67" class="c">]</text></symbol><symbol id="22">0<text y="1.67" class="c">[ go</text>0<text x="5.01" y="1.67" class="c">][</text>0<text x="13.026" y="1.67" class="k">0 AuxMBP:tracker:go</text>0<text x="34.068" y="1.67" class="h">(</text>0<text x="35.07" y="1.67" class="j">1*AuxMBP:node:go</text>0<text x="51.102" y="1.67" class="h">)</text>0<text x="52.104" y="1.67" class="k">2- AuxMBP:node:go</text>0<text x="78.156" y="1.67" class="c">][</text>0<text x="80.16" y="1.67" class="l">09-17</text>0<text x="87.174" y="1.67" class="j">19:24</text>0<text x="93.186" y="1.67" class="c">]</text></symbol><symbol id="23"><text y="1.67" class="d">02ec784ca599f21ef93fe7abdc68d78817ab6c9b31f2324d15ea174d9da498b4c4</text></symbol><symbol id="24"><text y="1.67" class="d">Input</text><text x="6.012" y="1.67" class="d">target</text><text x="13.026" y="1.67" class="d">node</text><text x="18.036" y="1.67" class="d">ID:</text><text x="22.044" y="1.67" class="d">000005aa62048f85da4ae9698ed59c14ec0d48a88a07c15a32265634e7e64ade</text></symbol><symbol id="25"><text y="1.67" class="d">Input</text><text x="6.012" y="1.67" class="d">msg:</text><text x="11.022" y="1.67" class="d">alice</text></symbol><symbol id="26"><text y="1.67" class="d">Input</text><text x="6.012" y="1.67" class="d">msg:</text><text x="11.022" y="1.67" class="d">alice</text><text x="17.034" y="1.67" class="d">say</text></symbol><symbol id="27"><text y="1.67" class="e">INFO</text><text x="4.008" y="1.67" class="d">[0007]</text><text x="11.022" y="1.67" class="d">get</text><text x="15.03" y="1.67" class="d">node</text><text x="20.04" y="1.67" class="d">000005aa62048f85da4ae9698ed59c14ec0d48a88a07c15a32265634e7e64ade</text><text x="85.17" y="1.67" class="d">addr</text><text x="90.18" y="1.67" class="d">fail</text></symbol><symbol id="28"><text y="1.67" class="d">ed:</text><text x="4.008" y="1.67" class="d">unknown</text><text x="12.024" y="1.67" class="d">node</text><text x="17.034" y="1.67" class="d">id</text><text x="21.042" y="1.67" class="e">caller</text><text x="27.054" y="1.67" class="d">=&quot;rpcutil.go:176</text><text x="44.088" y="1.67" class="d">rpc.GetNodeAddr&quot;</text></symbol><symbol id="29"><text y="1.67" class="e">INFO</text><text x="4.008" y="1.67" class="d">[0007]</text><text x="11.022" y="1.67" class="d">resp</text><text x="16.032" y="1.67" class="d">msg:</text><text x="21.042" y="1.67" class="d">got</text><text x="25.05" y="1.67" class="d">alice</text><text x="31.062" y="1.67" class="d">say</text><text x="57.114" y="1.67" class="e">caller</text><text x="63.126" y="1.67" class="d">=&quot;main.go:103</text><text x="77.154" y="1.67" class="d">main.main&quot;</text></symbol><symbol id="30"><text y="1.67" class="d">Input</text><text x="6.012" y="1.67" class="d">target</text><text x="13.026" y="1.67" class="d">node</text><text x="18.036" y="1.67" class="d">ID:</text><text x="22.044" y="1.67" class="d">alice</text><text x="28.056" y="1.67" class="d">say</text></symbol><symbol id="31">0<text y="1.67" class="c">[ go</text>0<text x="5.01" y="1.67" class="c">][</text>0<text x="13.026" y="1.67" class="k">0 AuxMBP:tracker:go 1- AuxMBP:node:go</text>0<text x="53.106" y="1.67" class="h">(</text>0<text x="54.108" y="1.67" class="j">2*AuxMBP:node:go</text>0<text x="70.14" y="1.67" class="h">)</text>0<text x="76.152" y="1.67" class="k"></text>0<text x="78.156" y="1.67" class="c">][</text>0<text x="80.16" y="1.67" class="l">09-17</text>0<text x="87.174" y="1.67" class="j">19:24</text>0<text x="93.186" y="1.67" class="c">]</text></symbol><symbol id="32"><text y="1.67" class="d">lslslslslslsl</text></symbol><symbol id="33"><text y="1.67" class="d">[detached]</text></symbol><symbol id="34"><text y="1.67" class="c">auxten</text><text x="6.012" y="1.67" class="d">@</text><text x="7.014" y="1.67" class="e">AuxMBP</text><text x="13.026" y="1.67" class="d">:</text><text x="14.028" y="1.67" class="f">~/Codes/go/src/github.com/CovenantSQL/CovenantSQL/rpc/_example</text><text x="76.152" y="1.67" class="g">(develop</text><text x="84.168" y="1.67" class="h">⚡</text><text x="85.17" y="1.67" class="g">)</text><text x="87.174" y="1.67" class="h">»</text></symbol><symbol id="a"><path fill="transparent" d="M0 0h94v21H0z"/></symbol><symbol id="b"><path fill="#6f7683" d="M0 0h1.102v2.171H0z"/></symbol></defs><path class="a" d="M0 0h94v45.591H0z"/><g style="animation-duration:35.626724s;animation-iteration-count:infinite;animation-name:o;animation-timing-function:steps(1,end)"><svg width="7144"><svg><use xlink:href="#a"/><use xlink:href="#b" x="88.996"/><use xlink:href="#1"/><use xlink:href="#2" y="2.171"/></svg><svg x="94"><use xlink:href="#a"/><use xlink:href="#b" x="-.004" y="4.317"/><use xlink:href="#1"/><use xlink:href="#2" y="2.171"/></svg><svg x="188"><use xlink:href="#a"/><use xlink:href="#b" x="-.004" y="4.317"/><use xlink:href="#1"/><use xlink:href="#2" y="2.171"/></svg><svg x="282"><use xlink:href="#a"/><use xlink:href="#b" x="-.004"/></svg><svg x="376"><use xlink:href="#a"/><use xlink:href="#b" x="87.996"/><text y="1.67" class="c">auxten</text><text x="6.012" y="1.67" class="d">@</text><text x="7.014" y="1.67" class="e">AuxMBP</text><text x="13.026" y="1.67" class="d">:</text><text x="14.028" y="1.67" class="f">~/Codes/go/src/github.com/CovenantSQL/CovenantSQL/rpc/_example/tracker</text><text x="84.168" y="1.67" class="g">(dev</text></svg><svg x="470"><use xlink:href="#a"/><use xlink:href="#b" x="37.996" y="2.146"/><use xlink:href="#3"/><use xlink:href="#4" y="2.171"/><use xlink:href="#5" y="43.42"/></svg><svg x="564"><use xlink:href="#a"/><use xlink:href="#b" x="34.996"/><text y="1.67" class="c">go</text><text x="3.006" y="1.67" class="d">run</text><text x="7.014" y="1.67" class="i">main.go</text><text x="15.03" y="1.67" class="i">../conf/tracker.yaml</text><text x="90.18" y="1.67" class="h">1</text><text x="92.184" y="1.67" class="h">↵</text><use xlink:href="#5" y="43.42"/></svg><svg x="658"><use xlink:href="#a"/><use xlink:href="#b" x="37.996" y="2.146"/><use xlink:href="#3"/><use xlink:href="#4" y="2.171"/><use xlink:href="#5" y="43.42"/></svg><svg x="752"><use xlink:href="#a"/><use xlink:href="#b" x="-.004" y="4.317"/><use xlink:href="#3"/><use xlink:href="#4" y="2.171"/><use xlink:href="#5" y="43.42"/></svg><svg x="846"><use xlink:href="#a"/><use xlink:href="#b" x="93.996" y="43.395"/><use xlink:href="#3"/><use xlink:href="#4" y="2.171"/>0<text y="45.09" class="c">[ [~/Codes/go/src/github.com/CovenantSQL/CovenantSQL/rpc/_example/tracker] :go run main.go ../</text></svg><svg x="940"><use xlink:href="#a"/><use xlink:href="#b" x="-.004" y="4.317"/><use xlink:href="#3"/><use xlink:href="#4" y="2.171"/><use xlink:href="#6" y="43.42"/></svg><svg x="1034"><use xlink:href="#a"/><use xlink:href="#b" x="-.004" y="15.172"/><use xlink:href="#3"/><use xlink:href="#4" y="2.171"/><use xlink:href="#7" y="4.342"/><use xlink:href="#8" y="6.513"/><text y="10.354" class="d">02c76216704d797c64c58bc11519fb68582e8e63de7e5b3b2dbbbe8733efe5fd24</text><use xlink:href="#8" y="10.855"/><use xlink:href="#9" y="13.026"/><use xlink:href="#6" y="43.42"/></svg><svg x="1128"><use xlink:href="#a"/><use xlink:href="#b" x="88.996"/><use xlink:href="#10"/></svg><svg x="1222"><use xlink:href="#a"/><use xlink:href="#b" x="27.996" y="2.146"/><use xlink:href="#11"/><use xlink:href="#12" y="2.171"/><use xlink:href="#13" y="43.42"/></svg><svg x="1316"><use xlink:href="#a"/><use xlink:href="#b" x="27.996" y="2.146"/><use xlink:href="#11"/><use xlink:href="#12" y="2.171"/><use xlink:href="#13" y="43.42"/></svg><svg x="1410"><use xlink:href="#a"/><use xlink:href="#b" x="84.996"/><use xlink:href="#14"/></svg><svg x="1504"><use xlink:href="#a"/><use xlink:href="#b" x="32.996" y="2.146"/><use xlink:href="#11"/><use xlink:href="#15" y="2.171"/><use xlink:href="#16" y="43.42"/></svg><svg x="1598"><use xlink:href="#a"/><use xlink:href="#b" x="32.996" y="2.146"/><use xlink:href="#11"/><use xlink:href="#15" y="2.171"/><use xlink:href="#16" y="43.42"/></svg><svg x="1692"><use xlink:href="#a"/><use xlink:href="#b" x="-.004" y="4.317"/><use xlink:href="#11"/><use xlink:href="#15" y="2.171"/><use xlink:href="#16" y="43.42"/></svg><svg x="1786"><use xlink:href="#a"/><use xlink:href="#b" x="93.996" y="43.395"/><use xlink:href="#11"/><use xlink:href="#15" y="2.171"/><use xlink:href="#17" y="43.42"/></svg><svg x="1880"><use xlink:href="#a"/><use xlink:href="#b" x="-.004" y="4.317"/><use xlink:href="#11"/><use xlink:href="#15" y="2.171"/><use xlink:href="#18" y="43.42"/></svg><svg x="1974"><use xlink:href="#a"/><use xlink:href="#b" x="-.004" y="15.172"/><use xlink:href="#11"/><use xlink:href="#15" y="2.171"/><use xlink:href="#7" y="4.342"/><use xlink:href="#8" y="6.513"/><use xlink:href="#19" y="8.684"/><use xlink:href="#8" y="10.855"/><use xlink:href="#9" y="13.026"/><use xlink:href="#18" y="43.42"/></svg><svg x="2068"><use xlink:href="#a"/><use xlink:href="#b" x="21.996" y="15.172"/><use xlink:href="#11"/><use xlink:href="#15" y="2.171"/><use xlink:href="#7" y="4.342"/><use xlink:href="#8" y="6.513"/><use xlink:href="#19" y="8.684"/><use xlink:href="#8" y="10.855"/><use xlink:href="#9" y="13.026"/><use xlink:href="#20" y="15.197"/><use xlink:href="#18" y="43.42"/></svg><svg x="2162"><use xlink:href="#a"/><use xlink:href="#b" x="84.996"/><use xlink:href="#14"/></svg><svg x="2256"><use xlink:href="#a"/><use xlink:href="#b" x="27.996" y="2.146"/><use xlink:href="#11"/><use xlink:href="#12" y="2.171"/><use xlink:href="#21" y="43.42"/></svg><svg x="2350"><use xlink:href="#a"/><use xlink:href="#b" x="-.004" y="4.317"/><use xlink:href="#11"/><use xlink:href="#12" y="2.171"/><use xlink:href="#21" y="43.42"/></svg><svg x="2444"><use xlink:href="#a"/><use xlink:href="#b" x="93.996" y="43.395"/><use xlink:href="#11"/><use xlink:href="#12" y="2.171"/><use xlink:href="#17" y="43.42"/></svg><svg x="2538"><use xlink:href="#a"/><use xlink:href="#b" x="-.004" y="4.317"/><use xlink:href="#11"/><use xlink:href="#12" y="2.171"/><use xlink:href="#22" y="43.42"/></svg><svg x="2632"><use xlink:href="#a"/><use xlink:href="#b" x="-.004" y="15.172"/><use xlink:href="#11"/><use xlink:href="#12" y="2.171"/><use xlink:href="#7" y="4.342"/><use xlink:href="#8" y="6.513"/><use xlink:href="#23" y="8.684"/><use xlink:href="#8" y="10.855"/><use xlink:href="#9" y="13.026"/><use xlink:href="#22" y="43.42"/></svg><svg x="2726"><use xlink:href="#a"/><use xlink:href="#b" x="21.996" y="15.172"/><use xlink:href="#11"/><use xlink:href="#12" y="2.171"/><use xlink:href="#7" y="4.342"/><use xlink:href="#8" y="6.513"/><use xlink:href="#23" y="8.684"/><use xlink:href="#8" y="10.855"/><use xlink:href="#9" y="13.026"/><use xlink:href="#20" y="15.197"/><use xlink:href="#22" y="43.42"/></svg><svg x="2820"><use xlink:href="#a"/><use xlink:href="#b" x="85.996" y="15.172"/><use xlink:href="#11"/><use xlink:href="#12" y="2.171"/><use xlink:href="#7" y="4.342"/><use xlink:href="#8" y="6.513"/><use xlink:href="#23" y="8.684"/><use xlink:href="#8" y="10.855"/><use xlink:href="#9" y="13.026"/><use xlink:href="#24" y="15.197"/><use xlink:href="#22" y="43.42"/></svg><svg x="2914"><use xlink:href="#a"/><use xlink:href="#b" x="-.004" y="17.343"/><use xlink:href="#11"/><use xlink:href="#12" y="2.171"/><use xlink:href="#7" y="4.342"/><use xlink:href="#8" y="6.513"/><use xlink:href="#23" y="8.684"/><use xlink:href="#8" y="10.855"/><use xlink:href="#9" y="13.026"/><use xlink:href="#24" y="15.197"/><use xlink:href="#22" y="43.42"/></svg><svg x="3008"><use xlink:href="#a"/><use xlink:href="#b" x="10.996" y="17.343"/><use xlink:href="#11"/><use xlink:href="#12" y="2.171"/><use xlink:href="#7" y="4.342"/><use xlink:href="#8" y="6.513"/><use xlink:href="#23" y="8.684"/><use xlink:href="#8" y="10.855"/><use xlink:href="#9" y="13.026"/><use xlink:href="#24" y="15.197"/><text y="19.038" class="d">Input</text><text x="6.012" y="19.038" class="d">msg:</text><use xlink:href="#22" y="43.42"/></svg><svg x="3102"><use xlink:href="#a"/><use xlink:href="#b" x="11.996" y="17.343"/><use xlink:href="#11"/><use xlink:href="#12" y="2.171"/><use xlink:href="#7" y="4.342"/><use xlink:href="#8" y="6.513"/><use xlink:href="#23" y="8.684"/><use xlink:href="#8" y="10.855"/><use xlink:href="#9" y="13.026"/><use xlink:href="#24" y="15.197"/><text y="19.038" class="d">Input</text><text x="6.012" y="19.038" class="d">msg:</text><text x="11.022" y="19.038" class="d">a</text><use xlink:href="#22" y="43.42"/></svg><svg x="3196"><use xlink:href="#a"/><use xlink:href="#b" x="12.996" y="17.343"/><use xlink:href="#11"/><use xlink:href="#12" y="2.171"/><use xlink:href="#7" y="4.342"/><use xlink:href="#8" y="6.513"/><use xlink:href="#23" y="8.684"/><use xlink:href="#8" y="10.855"/><use xlink:href="#9" y="13.026"/><use xlink:href="#24" y="15.197"/><text y="19.038" class="d">Input</text><text x="6.012" y="19.038" class="d">msg:</text><text x="11.022" y="19.038" class="d">al</text><use xlink:href="#22" y="43.42"/></svg><svg x="3290"><use xlink:href="#a"/><use xlink:href="#b" x="13.996" y="17.343"/><use xlink:href="#11"/><use xlink:href="#12" y="2.171"/><use xlink:href="#7" y="4.342"/><use xlink:href="#8" y="6.513"/><use xlink:href="#23" y="8.684"/><use xlink:href="#8" y="10.855"/><use xlink:href="#9" y="13.026"/><use xlink:href="#24" y="15.197"/><text y="19.038" class="d">Input</text><text x="6.012" y="19.038" class="d">msg:</text><text x="11.022" y="19.038" class="d">ali</text><use xlink:href="#22" y="43.42"/></svg><svg x="3384"><use xlink:href="#a"/><use xlink:href="#b" x="14.996" y="17.343"/><use xlink:href="#11"/><use xlink:href="#12" y="2.171"/><use xlink:href="#7" y="4.342"/><use xlink:href="#8" y="6.513"/><use xlink:href="#23" y="8.684"/><use xlink:href="#8" y="10.855"/><use xlink:href="#9" y="13.026"/><use xlink:href="#24" y="15.197"/><text y="19.038" class="d">Input</text><text x="6.012" y="19.038" class="d">msg:</text><text x="11.022" y="19.038" class="d">alic</text><use xlink:href="#22" y="43.42"/></svg><svg x="3478"><use xlink:href="#a"/><use xlink:href="#b" x="15.996" y="17.343"/><use xlink:href="#11"/><use xlink:href="#12" y="2.171"/><use xlink:href="#7" y="4.342"/><use xlink:href="#8" y="6.513"/><use xlink:href="#23" y="8.684"/><use xlink:href="#8" y="10.855"/><use xlink:href="#9" y="13.026"/><use xlink:href="#24" y="15.197"/><use xlink:href="#25" y="17.368"/><use xlink:href="#22" y="43.42"/></svg><svg x="3572"><use xlink:href="#a"/><use xlink:href="#b" x="16.996" y="17.343"/><use xlink:href="#11"/><use xlink:href="#12" y="2.171"/><use xlink:href="#7" y="4.342"/><use xlink:href="#8" y="6.513"/><use xlink:href="#23" y="8.684"/><use xlink:href="#8" y="10.855"/><use xlink:href="#9" y="13.026"/><use xlink:href="#24" y="15.197"/><use xlink:href="#25" y="17.368"/><use xlink:href="#22" y="43.42"/></svg><svg x="3666"><use xlink:href="#a"/><use xlink:href="#b" x="17.996" y="17.343"/><use xlink:href="#11"/><use xlink:href="#12" y="2.171"/><use xlink:href="#7" y="4.342"/><use xlink:href="#8" y="6.513"/><use xlink:href="#23" y="8.684"/><use xlink:href="#8" y="10.855"/><use xlink:href="#9" y="13.026"/><use xlink:href="#24" y="15.197"/><text y="19.038" class="d">Input</text><text x="6.012" y="19.038" class="d">msg:</text><text x="11.022" y="19.038" class="d">alice</text><text x="17.034" y="19.038" class="d">s</text><use xlink:href="#22" y="43.42"/></svg><svg x="3760"><use xlink:href="#a"/><use xlink:href="#b" x="18.996" y="17.343"/><use xlink:href="#11"/><use xlink:href="#12" y="2.171"/><use xlink:href="#7" y="4.342"/><use xlink:href="#8" y="6.513"/><use xlink:href="#23" y="8.684"/><use xlink:href="#8" y="10.855"/><use xlink:href="#9" y="13.026"/><use xlink:href="#24" y="15.197"/><text y="19.038" class="d">Input</text><text x="6.012" y="19.038" class="d">msg:</text><text x="11.022" y="19.038" class="d">alice</text><text x="17.034" y="19.038" class="d">sa</text><use xlink:href="#22" y="43.42"/></svg><svg x="3854"><use xlink:href="#a"/><use xlink:href="#b" x="19.996" y="17.343"/><use xlink:href="#11"/><use xlink:href="#12" y="2.171"/><use xlink:href="#7" y="4.342"/><use xlink:href="#8" y="6.513"/><use xlink:href="#23" y="8.684"/><use xlink:href="#8" y="10.855"/><use xlink:href="#9" y="13.026"/><use xlink:href="#24" y="15.197"/><use xlink:href="#26" y="17.368"/><use xlink:href="#22" y="43.42"/></svg><svg x="3948"><use xlink:href="#a"/><use xlink:href="#b" x="-.004" y="19.514"/><use xlink:href="#11"/><use xlink:href="#12" y="2.171"/><use xlink:href="#7" y="4.342"/><use xlink:href="#8" y="6.513"/><use xlink:href="#23" y="8.684"/><use xlink:href="#8" y="10.855"/><use xlink:href="#9" y="13.026"/><use xlink:href="#24" y="15.197"/><use xlink:href="#26" y="17.368"/><use xlink:href="#22" y="43.42"/></svg><svg x="4042"><use xlink:href="#a"/><use xlink:href="#b" x="-.004" y="23.856"/><use xlink:href="#11"/><use xlink:href="#12" y="2.171"/><use xlink:href="#7" y="4.342"/><use xlink:href="#8" y="6.513"/><use xlink:href="#23" y="8.684"/><use xlink:href="#8" y="10.855"/><use xlink:href="#9" y="13.026"/><use xlink:href="#24" y="15.197"/><use xlink:href="#26" y="17.368"/><use xlink:href="#27" y="19.539"/><use xlink:href="#28" y="21.71"/><use xlink:href="#22" y="43.42"/></svg><svg x="4136"><use xlink:href="#a"/><use xlink:href="#b" x="-.004" y="26.027"/><use xlink:href="#11"/><use xlink:href="#12" y="2.171"/><use xlink:href="#7" y="4.342"/><use xlink:href="#8" y="6.513"/><use xlink:href="#23" y="8.684"/><use xlink:href="#8" y="10.855"/><use xlink:href="#9" y="13.026"/><use xlink:href="#24" y="15.197"/><use xlink:href="#26" y="17.368"/><use xlink:href="#27" y="19.539"/><use xlink:href="#28" y="21.71"/><use xlink:href="#29" y="23.881"/><use xlink:href="#22" y="43.42"/></svg><svg x="4230"><use xlink:href="#a"/><use xlink:href="#b" x="88.996"/><use xlink:href="#10"/></svg><svg x="4324"><use xlink:href="#a"/><use xlink:href="#b" x="93.996" y="43.395"/><use xlink:href="#11"/><use xlink:href="#15" y="2.171"/><use xlink:href="#7" y="4.342"/><use xlink:href="#8" y="6.513"/><use xlink:href="#19" y="8.684"/><use xlink:href="#8" y="10.855"/><use xlink:href="#9" y="13.026"/><use xlink:href="#30" y="15.197"/><use xlink:href="#31" y="43.42"/></svg><svg x="4418"><use xlink:href="#a"/><use xlink:href="#b" x="-.004" y="17.343"/><use xlink:href="#11"/><use xlink:href="#15" y="2.171"/><use xlink:href="#7" y="4.342"/><use xlink:href="#8" y="6.513"/><use xlink:href="#19" y="8.684"/><use xlink:href="#8" y="10.855"/><use xlink:href="#9" y="13.026"/><use xlink:href="#30" y="15.197"/><use xlink:href="#31" y="43.42"/></svg><svg x="4512"><use xlink:href="#a"/><use xlink:href="#b" x="88.996"/><use xlink:href="#10"/></svg><svg x="4606"><use xlink:href="#a"/><use xlink:href="#b" x="20.996" y="21.685"/><use xlink:href="#11"/><use xlink:href="#12" y="2.171"/><use xlink:href="#7" y="4.342"/><use xlink:href="#8" y="6.513"/><use xlink:href="#23" y="8.684"/><use xlink:href="#8" y="10.855"/><use xlink:href="#9" y="13.026"/><use xlink:href="#24" y="15.197"/><use xlink:href="#26" y="17.368"/><use xlink:href="#27" y="19.539"/><text y="23.38" class="d">ed:</text><text x="4.008" y="23.38" class="d">unknown</text><text x="12.024" y="23.38" class="d">node</text><text x="17.034" y="23.38" class="d">id</text></svg><svg x="4700"><use xlink:href="#a"/><use xlink:href="#b" x="92.996" y="43.395"/><use xlink:href="#11"/><use xlink:href="#12" y="2.171"/><use xlink:href="#7" y="4.342"/><use xlink:href="#8" y="6.513"/><use xlink:href="#23" y="8.684"/><use xlink:href="#8" y="10.855"/><use xlink:href="#9" y="13.026"/><use xlink:href="#24" y="15.197"/><use xlink:href="#26" y="17.368"/><use xlink:href="#27" y="19.539"/><use xlink:href="#28" y="21.71"/><use xlink:href="#29" y="23.881"/><use xlink:href="#22" y="43.42"/></svg><svg x="4794"><use xlink:href="#a"/><use xlink:href="#b" x="-.004" y="26.027"/><use xlink:href="#11"/><use xlink:href="#12" y="2.171"/><use xlink:href="#7" y="4.342"/><use xlink:href="#8" y="6.513"/><use xlink:href="#23" y="8.684"/><use xlink:href="#8" y="10.855"/><use xlink:href="#9" y="13.026"/><use xlink:href="#24" y="15.197"/><use xlink:href="#26" y="17.368"/><use xlink:href="#27" y="19.539"/><use xlink:href="#28" y="21.71"/><use xlink:href="#29" y="23.881"/><use xlink:href="#22" y="43.42"/></svg><svg x="4888"><use xlink:href="#a"/><use xlink:href="#b" x=".996" y="26.027"/><use xlink:href="#11"/><use xlink:href="#12" y="2.171"/><use xlink:href="#7" y="4.342"/><use xlink:href="#8" y="6.513"/><use xlink:href="#23" y="8.684"/><use xlink:href="#8" y="10.855"/><use xlink:href="#9" y="13.026"/><use xlink:href="#24" y="15.197"/><use xlink:href="#26" y="17.368"/><use xlink:href="#27" y="19.539"/><use xlink:href="#28" y="21.71"/><use xlink:href="#29" y="23.881"/><text y="27.722" class="d">l</text><use xlink:href="#22" y="43.42"/></svg><svg x="4982"><use xlink:href="#a"/><use xlink:href="#b" x="1.996" y="26.027"/><use xlink:href="#11"/><use xlink:href="#12" y="2.171"/><use xlink:href="#7" y="4.342"/><use xlink:href="#8" y="6.513"/><use xlink:href="#23" y="8.684"/><use xlink:href="#8" y="10.855"/><use xlink:href="#9" y="13.026"/><use xlink:href="#24" y="15.197"/><use xlink:href="#26" y="17.368"/><use xlink:href="#27" y="19.539"/><use xlink:href="#28" y="21.71"/><use xlink:href="#29" y="23.881"/><text y="27.722" class="d">ls</text><use xlink:href="#22" y="43.42"/></svg><svg x="5076"><use xlink:href="#a"/><use xlink:href="#b" x="2.996" y="26.027"/><use xlink:href="#11"/><use xlink:href="#12" y="2.171"/><use xlink:href="#7" y="4.342"/><use xlink:href="#8" y="6.513"/><use xlink:href="#23" y="8.684"/><use xlink:href="#8" y="10.855"/><use xlink:href="#9" y="13.026"/><use xlink:href="#24" y="15.197"/><use xlink:href="#26" y="17.368"/><use xlink:href="#27" y="19.539"/><use xlink:href="#28" y="21.71"/><use xlink:href="#29" y="23.881"/><text y="27.722" class="d">lsl</text><use xlink:href="#22" y="43.42"/></svg><svg x="5170"><use xlink:href="#a"/><use xlink:href="#b" x="3.996" y="26.027"/><use xlink:href="#11"/><use xlink:href="#12" y="2.171"/><use xlink:href="#7" y="4.342"/><use xlink:href="#8" y="6.513"/><use xlink:href="#23" y="8.684"/><use xlink:href="#8" y="10.855"/><use xlink:href="#9" y="13.026"/><use xlink:href="#24" y="15.197"/><use xlink:href="#26" y="17.368"/><use xlink:href="#27" y="19.539"/><use xlink:href="#28" y="21.71"/><use xlink:href="#29" y="23.881"/><text y="27.722" class="d">lsls</text><use xlink:href="#22" y="43.42"/></svg><svg x="5264"><use xlink:href="#a"/><use xlink:href="#b" x="4.996" y="26.027"/><use xlink:href="#11"/><use xlink:href="#12" y="2.171"/><use xlink:href="#7" y="4.342"/><use xlink:href="#8" y="6.513"/><use xlink:href="#23" y="8.684"/><use xlink:href="#8" y="10.855"/><use xlink:href="#9" y="13.026"/><use xlink:href="#24" y="15.197"/><use xlink:href="#26" y="17.368"/><use xlink:href="#27" y="19.539"/><use xlink:href="#28" y="21.71"/><use xlink:href="#29" y="23.881"/><text y="27.722" class="d">lslsl</text><use xlink:href="#22" y="43.42"/></svg><svg x="5358"><use xlink:href="#a"/><use xlink:href="#b" x="5.996" y="26.027"/><use xlink:href="#11"/><use xlink:href="#12" y="2.171"/><use xlink:href="#7" y="4.342"/><use xlink:href="#8" y="6.513"/><use xlink:href="#23" y="8.684"/><use xlink:href="#8" y="10.855"/><use xlink:href="#9" y="13.026"/><use xlink:href="#24" y="15.197"/><use xlink:href="#26" y="17.368"/><use xlink:href="#27" y="19.539"/><use xlink:href="#28" y="21.71"/><use xlink:href="#29" y="23.881"/><text y="27.722" class="d">lslsls</text><use xlink:href="#22" y="43.42"/></svg><svg x="5452"><use xlink:href="#a"/><use xlink:href="#b" x="6.996" y="26.027"/><use xlink:href="#11"/><use xlink:href="#12" y="2.171"/><use xlink:href="#7" y="4.342"/><use xlink:href="#8" y="6.513"/><use xlink:href="#23" y="8.684"/><use xlink:href="#8" y="10.855"/><use xlink:href="#9" y="13.026"/><use xlink:href="#24" y="15.197"/><use xlink:href="#26" y="17.368"/><use xlink:href="#27" y="19.539"/><use xlink:href="#28" y="21.71"/><use xlink:href="#29" y="23.881"/><text y="27.722" class="d">lslslsl</text><use xlink:href="#22" y="43.42"/></svg><svg x="5546"><use xlink:href="#a"/><use xlink:href="#b" x="7.996" y="26.027"/><use xlink:href="#11"/><use xlink:href="#12" y="2.171"/><use xlink:href="#7" y="4.342"/><use xlink:href="#8" y="6.513"/><use xlink:href="#23" y="8.684"/><use xlink:href="#8" y="10.855"/><use xlink:href="#9" y="13.026"/><use xlink:href="#24" y="15.197"/><use xlink:href="#26" y="17.368"/><use xlink:href="#27" y="19.539"/><use xlink:href="#28" y="21.71"/><use xlink:href="#29" y="23.881"/><text y="27.722" class="d">lslslsls</text><use xlink:href="#22" y="43.42"/></svg><svg x="5640"><use xlink:href="#a"/><use xlink:href="#b" x="8.996" y="26.027"/><use xlink:href="#11"/><use xlink:href="#12" y="2.171"/><use xlink:href="#7" y="4.342"/><use xlink:href="#8" y="6.513"/><use xlink:href="#23" y="8.684"/><use xlink:href="#8" y="10.855"/><use xlink:href="#9" y="13.026"/><use xlink:href="#24" y="15.197"/><use xlink:href="#26" y="17.368"/><use xlink:href="#27" y="19.539"/><use xlink:href="#28" y="21.71"/><use xlink:href="#29" y="23.881"/><text y="27.722" class="d">lslslslsl</text><use xlink:href="#22" y="43.42"/></svg><svg x="5734"><use xlink:href="#a"/><use xlink:href="#b" x="9.996" y="26.027"/><use xlink:href="#11"/><use xlink:href="#12" y="2.171"/><use xlink:href="#7" y="4.342"/><use xlink:href="#8" y="6.513"/><use xlink:href="#23" y="8.684"/><use xlink:href="#8" y="10.855"/><use xlink:href="#9" y="13.026"/><use xlink:href="#24" y="15.197"/><use xlink:href="#26" y="17.368"/><use xlink:href="#27" y="19.539"/><use xlink:href="#28" y="21.71"/><use xlink:href="#29" y="23.881"/><text y="27.722" class="d">lslslslsls</text><use xlink:href="#22" y="43.42"/></svg><svg x="5828"><use xlink:href="#a"/><use xlink:href="#b" x="10.996" y="26.027"/><use xlink:href="#11"/><use xlink:href="#12" y="2.171"/><use xlink:href="#7" y="4.342"/><use xlink:href="#8" y="6.513"/><use xlink:href="#23" y="8.684"/><use xlink:href="#8" y="10.855"/><use xlink:href="#9" y="13.026"/><use xlink:href="#24" y="15.197"/><use xlink:href="#26" y="17.368"/><use xlink:href="#27" y="19.539"/><use xlink:href="#28" y="21.71"/><use xlink:href="#29" y="23.881"/><text y="27.722" class="d">lslslslslsl</text><use xlink:href="#22" y="43.42"/></svg><svg x="5922"><use xlink:href="#a"/><use xlink:href="#b" x="11.996" y="26.027"/><use xlink:href="#11"/><use xlink:href="#12" y="2.171"/><use xlink:href="#7" y="4.342"/><use xlink:href="#8" y="6.513"/><use xlink:href="#23" y="8.684"/><use xlink:href="#8" y="10.855"/><use xlink:href="#9" y="13.026"/><use xlink:href="#24" y="15.197"/><use xlink:href="#26" y="17.368"/><use xlink:href="#27" y="19.539"/><use xlink:href="#28" y="21.71"/><use xlink:href="#29" y="23.881"/><text y="27.722" class="d">lslslslslsls</text><use xlink:href="#22" y="43.42"/></svg><svg x="6016"><use xlink:href="#a"/><use xlink:href="#b" x="12.996" y="26.027"/><use xlink:href="#11"/><use xlink:href="#12" y="2.171"/><use xlink:href="#7" y="4.342"/><use xlink:href="#8" y="6.513"/><use xlink:href="#23" y="8.684"/><use xlink:href="#8" y="10.855"/><use xlink:href="#9" y="13.026"/><use xlink:href="#24" y="15.197"/><use xlink:href="#26" y="17.368"/><use xlink:href="#27" y="19.539"/><use xlink:href="#28" y="21.71"/><use xlink:href="#29" y="23.881"/><use xlink:href="#32" y="26.052"/><use xlink:href="#22" y="43.42"/></svg><svg x="6110"><use xlink:href="#a"/><use xlink:href="#b" x="-.004" y="28.198"/><use xlink:href="#11"/><use xlink:href="#12" y="2.171"/><use xlink:href="#7" y="4.342"/><use xlink:href="#8" y="6.513"/><use xlink:href="#23" y="8.684"/><use xlink:href="#8" y="10.855"/><use xlink:href="#9" y="13.026"/><use xlink:href="#24" y="15.197"/><use xlink:href="#26" y="17.368"/><use xlink:href="#27" y="19.539"/><use xlink:href="#28" y="21.71"/><use xlink:href="#29" y="23.881"/><use xlink:href="#32" y="26.052"/><use xlink:href="#22" y="43.42"/></svg><svg x="6204"><use xlink:href="#a"/><use xlink:href="#b" x="-.004" y="30.369"/><use xlink:href="#11"/><use xlink:href="#12" y="2.171"/><use xlink:href="#7" y="4.342"/><use xlink:href="#8" y="6.513"/><use xlink:href="#23" y="8.684"/><use xlink:href="#8" y="10.855"/><use xlink:href="#9" y="13.026"/><use xlink:href="#24" y="15.197"/><use xlink:href="#26" y="17.368"/><use xlink:href="#27" y="19.539"/><use xlink:href="#28" y="21.71"/><use xlink:href="#29" y="23.881"/><use xlink:href="#32" y="26.052"/><text y="29.893" class="e">INFO</text><text x="4.008" y="29.893" class="d">[0015]</text><text x="11.022" y="29.893" class="d">resp</text><text x="16.032" y="29.893" class="d">msg:</text><text x="21.042" y="29.893" class="d">got</text><text x="25.05" y="29.893" class="d">lslslslslslsl</text><text x="57.114" y="29.893" class="e">caller</text><text x="63.126" y="29.893" class="d">=&quot;main.go:103</text><text x="77.154" y="29.893" class="d">main.main&quot;</text><use xlink:href="#22" y="43.42"/></svg><svg x="6298"><use xlink:href="#a"/><use xlink:href="#b" x="88.996"/><use xlink:href="#10"/></svg><svg x="6392"><use xlink:href="#a"/><use xlink:href="#b" x="87.996" y="43.395"/><use xlink:href="#11"/><use xlink:href="#15" y="2.171"/><use xlink:href="#7" y="4.342"/><use xlink:href="#8" y="6.513"/><use xlink:href="#19" y="8.684"/><use xlink:href="#8" y="10.855"/><use xlink:href="#9" y="13.026"/><use xlink:href="#30" y="15.197"/><use xlink:href="#32" y="17.368"/>0<text y="45.09" class="c">[ go</text>0<text x="5.01" y="45.09" class="c">][</text>0<text x="13.026" y="45.09" class="k">0 AuxMBP:tracker:go 1- AuxMBP:node:go</text>0<text x="53.106" y="45.09" class="h">(</text>0<text x="54.108" y="45.09" class="j">2*AuxMBP:node:go</text>0<text x="70.14" y="45.09" class="h">)</text>0<text x="76.152" y="45.09" class="k"></text>0<text x="78.156" y="45.09" class="c">][</text>0<text x="80.16" y="45.09" class="l">09-17</text>0<text x="87.174" y="45.09" class="j">1</text></svg><svg x="6486"><use xlink:href="#a"/><use xlink:href="#b" x="-.004" y="19.514"/><use xlink:href="#11"/><use xlink:href="#15" y="2.171"/><use xlink:href="#7" y="4.342"/><use xlink:href="#8" y="6.513"/><use xlink:href="#19" y="8.684"/><use xlink:href="#8" y="10.855"/><use xlink:href="#9" y="13.026"/><use xlink:href="#30" y="15.197"/><use xlink:href="#32" y="17.368"/><use xlink:href="#31" y="43.42"/></svg><svg x="6580"><use xlink:href="#a"/><use xlink:href="#b" x="-.004" y="6.488"/><use xlink:href="#1"/><use xlink:href="#2" y="2.171"/><use xlink:href="#33" y="4.342"/></svg><svg x="6674"><use xlink:href="#a"/><use xlink:href="#b" x="-.004" y="6.488"/><use xlink:href="#1"/><use xlink:href="#2" y="2.171"/><use xlink:href="#33" y="4.342"/></svg><svg x="6768"><use xlink:href="#a"/><use xlink:href="#b" x="-.004" y="6.488"/><use xlink:href="#1"/><use xlink:href="#2" y="2.171"/><use xlink:href="#33" y="4.342"/></svg><svg x="6862"><use xlink:href="#a"/><use xlink:href="#b" x="88.996" y="6.488"/><use xlink:href="#1"/><use xlink:href="#2" y="2.171"/><use xlink:href="#33" y="4.342"/><use xlink:href="#34" y="6.513"/></svg><svg x="6956"><use xlink:href="#a"/><use xlink:href="#b" x="88.996" y="6.488"/><use xlink:href="#1"/><use xlink:href="#2" y="2.171"/><use xlink:href="#33" y="4.342"/><use xlink:href="#34" y="6.513"/></svg><svg x="7050"><use xlink:href="#a"/><use xlink:href="#b" x="-.004" y="8.659"/><use xlink:href="#1"/><use xlink:href="#2" y="2.171"/><use xlink:href="#33" y="4.342"/><use xlink:href="#34" y="6.513"/></svg></svg></g></g></svg></svg>