<?xml version="1.0" encoding="UTF-8"?>
<svg width="161px" height="257px" viewBox="0 0 161 257" version="1.1" xmlns="http://www.w3.org/2000/svg" xmlns:xlink="http://www.w3.org/1999/xlink">
    <!-- Generator: Sketch 49.3 (51167) - http://www.bohemiancoding.com/sketch -->
    <title>Combined Shape</title>
    <desc>Created with Sketch.</desc>
    <defs>
        <linearGradient x1="0%" y1="50%" x2="100%" y2="50%" id="linearGradient-1">
            <stop stop-color="#495AFF" offset="0%"></stop>
            <stop stop-color="#0ACFFE" offset="100%"></stop>
        </linearGradient>
    </defs>
    <g id="Page-1" stroke="none" stroke-width="1" fill="none" fill-rule="evenodd">
        <path d="M79.2875725,1.27929985e-06 L21.8713208,133.388431 C21.4412852,134.387482 21.2194897,135.463732 21.2194897,136.551406 C21.2194897,140.969684 24.8012117,144.551406 29.2194897,144.551406 L81.3423581,144.551406 C81.6039826,144.551406 81.8654496,144.56424 82.1258165,144.589861 C86.5228562,145.022554 89.7365948,148.937825 89.3039027,153.334864 L79.158816,256.429761 C78.8576319,256.290186 78.5699567,256.111112 78.3034434,255.89252 L2.92665505,194.069119 C1.0740052,192.549591 2.51624329e-14,190.279653 2.48689958e-14,187.883557 L3.55271368e-15,67.9392297 C-9.80417024e-16,65.5518907 1.06620344,63.2892993 2.9073398,61.769561 L75.6936678,1.68918177 C76.7618581,0.807460214 78.0010982,0.244656452 79.2875714,3.04478665e-13 Z M82.7450525,0.101643616 C83.8973696,0.391992126 84.9981215,0.942647546 85.9553755,1.7530378 L158.169047,62.8875528 C159.964548,64.4075843 161,66.6408524 161,68.9933655 L161,187.904499 C161,190.288603 159.936672,192.548477 158.099786,194.068279 L83.3900089,255.881629 C83.2937987,255.961231 83.1947891,256.035659 83.0933438,256.104912 L139.761699,120.640765 C140.170781,119.662866 140.381443,118.613418 140.381443,117.553402 C140.381443,113.135124 136.799721,109.553402 132.381443,109.553402 L80.4086665,109.553402 C80.1367632,109.553402 79.8650367,109.539539 79.5945451,109.511869 C75.1992048,109.062242 72.0005721,105.13462 72.4501989,100.73928 L82.7450525,0.101643616 Z" id="Combined-Shape" fill="url(#linearGradient-1)"></path>
    </g>
</svg>