<?xml version="1.0" encoding="UTF-8"?>
<svg width="1177px" height="257px" viewBox="0 0 1177 257" version="1.1" xmlns="http://www.w3.org/2000/svg" xmlns:xlink="http://www.w3.org/1999/xlink">
    <!-- Generator: Sketch 49.3 (51167) - http://www.bohemiancoding.com/sketch -->
    <title>Group 15</title>
    <desc>Created with Sketch.</desc>
    <defs>
        <linearGradient x1="0%" y1="50%" x2="100%" y2="50%" id="linearGradient-1">
            <stop stop-color="#495AFF" offset="0%"></stop>
            <stop stop-color="#0ACFFE" offset="100%"></stop>
        </linearGradient>
    </defs>
    <g id="Page-1" stroke="none" stroke-width="1" fill="none" fill-rule="evenodd">
        <g id="Group-15">
            <path d="M79.2875725,1.27929985e-06 L21.8713208,133.388431 C21.4412852,134.387482 21.2194897,135.463732 21.2194897,136.551406 C21.2194897,140.969684 24.8012117,144.551406 29.2194897,144.551406 L81.3423581,144.551406 C81.6039826,144.551406 81.8654496,144.56424 82.1258165,144.589861 C86.5228562,145.022554 89.7365948,148.937825 89.3039027,153.334864 L79.158816,256.429761 C78.8576319,256.290186 78.5699567,256.111112 78.3034434,255.89252 L2.92665505,194.069119 C1.0740052,192.549591 2.51624329e-14,190.279653 2.48689958e-14,187.883557 L3.55271368e-15,67.9392297 C-9.80417024e-16,65.5518907 1.06620344,63.2892993 2.9073398,61.769561 L75.6936678,1.68918177 C76.7618581,0.807460214 78.0010982,0.244656452 79.2875714,3.04478665e-13 Z M82.7450525,0.101643616 C83.8973696,0.391992126 84.9981215,0.942647546 85.9553755,1.7530378 L158.169047,62.8875528 C159.964548,64.4075843 161,66.6408524 161,68.9933655 L161,187.904499 C161,190.288603 159.936672,192.548477 158.099786,194.068279 L83.3900089,255.881629 C83.2937987,255.961231 83.1947891,256.035659 83.0933438,256.104912 L139.761699,120.640765 C140.170781,119.662866 140.381443,118.613418 140.381443,117.553402 C140.381443,113.135124 136.799721,109.553402 132.381443,109.553402 L80.4086665,109.553402 C80.1367632,109.553402 79.8650367,109.539539 79.5945451,109.511869 C75.1992048,109.062242 72.0005721,105.13462 72.4501989,100.73928 L82.7450525,0.101643616 Z" id="Combined-Shape" fill="url(#linearGradient-1)"></path>
            <g id="Group-6" transform="translate(221.000000, 15.000000)" fill="#2A94FF">
                <g id="Group-5">
                    <text id="Thu" font-family="PARaDOS" font-size="180" font-weight="normal" letter-spacing="3.78947282">
                        <tspan x="0" y="181">Thu</tspan>
                    </text>
                    <text id="derDB" font-family="PARaDOS" font-size="180" font-weight="normal" letter-spacing="3.78947306">
                        <tspan x="429" y="180">derDB</tspan>
                    </text>
                    <path d="M380.766162,61.2569309 L371.893507,105.911252 C371.462976,108.078033 372.870483,110.18357 375.037264,110.614102 C375.293978,110.66511 375.555078,110.690799 375.81681,110.690799 L413.009029,110.690799 C415.218168,110.690799 417.009029,112.48166 417.009029,114.690799 C417.009029,115.42866 416.804936,116.152144 416.419325,116.781226 L376.778064,181.451463 C376.489437,181.922326 375.873747,182.070058 375.402884,181.78143 C375.047954,181.563867 374.864939,181.149174 374.943421,180.740335 L384.16871,132.682639 C384.585178,130.513112 383.164043,128.416748 380.994516,128.000279 C380.74599,127.952571 380.493497,127.928556 380.240433,127.928556 L340.989507,127.928556 C338.780368,127.928556 336.989507,126.137695 336.989507,123.928556 C336.989507,123.131323 337.227736,122.352277 337.67362,121.691394 L378.956364,60.5027538 C379.265252,60.0449254 379.886798,59.924185 380.344627,60.2330726 C380.6785,60.4583303 380.844654,60.8618974 380.766162,61.2569309 Z" id="Path" transform="translate(377.000000, 121.000000) rotate(180.000000) translate(-377.000000, -121.000000) "></path>
                </g>
            </g>
        </g>
    </g>
</svg>