<?xml version="1.0" encoding="UTF-8"?>
<svg width="956px" height="124px" viewBox="0 0 956 124" version="1.1" xmlns="http://www.w3.org/2000/svg" xmlns:xlink="http://www.w3.org/1999/xlink">
    <!-- Generator: Sketch 49.3 (51167) - http://www.bohemiancoding.com/sketch -->
    <title>Group 6</title>
    <desc>Created with Sketch.</desc>
    <defs></defs>
    <g id="Page-1" stroke="none" stroke-width="1" fill="none" fill-rule="evenodd">
        <g id="Group-6" transform="translate(0.000000, -58.000000)" fill="#2A94FF">
            <g id="Group-5">
                <text id="Thu" font-family="PARaDOS" font-size="180" font-weight="normal" letter-spacing="3.78947282">
                    <tspan x="0" y="181">Thu</tspan>
                </text>
                <text id="derDB" font-family="PARaDOS" font-size="180" font-weight="normal" letter-spacing="3.78947306">
                    <tspan x="429" y="180">derDB</tspan>
                </text>
                <path d="M380.766162,61.2569309 L371.893507,105.911252 C371.462976,108.078033 372.870483,110.18357 375.037264,110.614102 C375.293978,110.66511 375.555078,110.690799 375.81681,110.690799 L413.009029,110.690799 C415.218168,110.690799 417.009029,112.48166 417.009029,114.690799 C417.009029,115.42866 416.804936,116.152144 416.419325,116.781226 L376.778064,181.451463 C376.489437,181.922326 375.873747,182.070058 375.402884,181.78143 C375.047954,181.563867 374.864939,181.149174 374.943421,180.740335 L384.16871,132.682639 C384.585178,130.513112 383.164043,128.416748 380.994516,128.000279 C380.74599,127.952571 380.493497,127.928556 380.240433,127.928556 L340.989507,127.928556 C338.780368,127.928556 336.989507,126.137695 336.989507,123.928556 C336.989507,123.131323 337.227736,122.352277 337.67362,121.691394 L378.956364,60.5027538 C379.265252,60.0449254 379.886798,59.924185 380.344627,60.2330726 C380.6785,60.4583303 380.844654,60.8618974 380.766162,61.2569309 Z" id="Path" transform="translate(377.000000, 121.000000) rotate(180.000000) translate(-377.000000, -121.000000) "></path>
            </g>
        </g>
    </g>
</svg>